<svg id="Capa_1" enable-background="new 0 0 512 512" height="512" viewBox="0 0 512 512" width="512" xmlns="http://www.w3.org/2000/svg"><g><g><path d="m404.606 512h-350.514c-12.15 0-22-9.85-22-22v-468c0-12.15 9.85-22 22-22h350.514c12.15 0 22 9.85 22 22v468c0 12.15-9.85 22-22 22z" fill="#dfdfdf"/></g><g><path d="m404.341 0h-14.33v453.139c0 12.297-9.969 22.265-22.265 22.265h-335.654v14.33c0 12.297 9.969 22.265 22.265 22.265h349.983c12.297 0 22.265-9.969 22.265-22.265v-467.469c.001-12.296-9.967-22.265-22.264-22.265z" fill="#ababab"/></g><g><path d="m358.955 400.539h-259.211c-7.18 0-13-5.82-13-13v-177.235c0-7.18 5.82-13 13-13h259.211c7.18 0 13 5.82 13 13v177.234c0 7.181-5.82 13.001-13 13.001z" fill="#fbd307"/></g><g><path d="m358.798 197.304h-22.614v154.307c0 7.266-5.891 13.157-13.157 13.157h-236.283v22.614c0 7.266 5.891 13.157 13.157 13.157h258.898c7.266 0 13.157-5.891 13.157-13.157v-176.921c-.001-7.266-5.892-13.157-13.158-13.157z" fill="#e6b700"/></g><g><circle cx="97.189" cy="110.182" fill="#595959" r="32.038"/></g><g><path d="m109.705 80.681c1.633 3.845 2.538 8.074 2.538 12.515 0 17.694-14.344 32.038-32.038 32.038-4.441 0-8.67-.905-12.515-2.538 4.874 11.475 16.247 19.523 29.5 19.523 17.694 0 32.038-14.344 32.038-32.038 0-13.253-8.048-24.625-19.523-29.5z" fill="#434343"/></g><g><circle cx="360.672" cy="110.182" fill="#595959" r="32.038"/></g><g><circle cx="97.189" cy="110.182" fill="#dfdfdf" r="8.971"/></g><g><path d="m373.187 80.681c1.633 3.845 2.538 8.074 2.538 12.515 0 17.694-14.344 32.038-32.038 32.038-4.441 0-8.67-.905-12.515-2.538 4.874 11.475 16.247 19.523 29.5 19.523 17.694 0 32.038-14.344 32.038-32.038 0-13.253-8.048-24.625-19.523-29.5z" fill="#434343"/></g><g><path d="m281.048 147.732h-103.398c-8.021 0-14.524-6.502-14.524-14.524v-46.053c0-8.021 6.502-14.524 14.524-14.524h103.398c8.021 0 14.524 6.502 14.524 14.524v46.054c0 8.021-6.503 14.523-14.524 14.523z" fill="#05e29a"/></g><g><path d="m280.873 72.631h-6.273v39.431c0 8.118-6.581 14.699-14.699 14.699h-96.775v6.273c0 8.118 6.581 14.699 14.699 14.699h103.047c8.118 0 14.699-6.581 14.699-14.699v-45.704c.001-8.118-6.58-14.699-14.698-14.699z" fill="#02b07b"/></g><g><path d="m86.744 256.953h285.211v15.181h-285.211z" fill="#818181"/></g><g><path d="m86.744 327.303h285.211v15.181h-285.211z" fill="#818181"/></g><g><path d="m247.819 117.772h-38.148c-4.193 0-7.59-3.398-7.59-7.59s3.398-7.59 7.59-7.59h38.148c4.193 0 7.59 3.398 7.59 7.59s-3.397 7.59-7.59 7.59z" fill="#f5f5f5"/></g><g><g><path d="m476.872 328.809h-25.302c-1.677 0-3.036-1.359-3.036-3.036v-59.485c0-3.968-3.217-7.184-7.184-7.184h-26.073c-8.664 0-15.687-7.023-15.687-15.687 0-8.664 7.023-15.687 15.687-15.687h26.073c21.295 0 38.558 17.263 38.558 38.558v59.485c0 1.677-1.36 3.036-3.036 3.036z" fill="#dfdfdf"/></g></g><g><path d="m441.35 227.73h-13.142c21.295 0 38.558 17.263 38.558 38.558v59.485c0 1.677-1.359 3.036-3.036 3.036h13.142c1.677 0 3.036-1.359 3.036-3.036v-59.485c0-21.295-17.263-38.558-38.558-38.558z" fill="#ababab"/></g><g><circle cx="360.672" cy="110.182" fill="#dfdfdf" r="8.971"/></g></g></svg>