<svg xmlns="http://www.w3.org/2000/svg" width="126.4" height="126.4" viewBox="0 0 126.4 126.4">
  <g id="Layer_2" data-name="Layer 2" transform="translate(-39.61 -39.61)">
    <g id="Layer_2-2" data-name="Layer 2" transform="translate(40.61 40.61)">
      <circle id="Ellipse_6" data-name="Ellipse 6" cx="62.2" cy="62.2" r="62.2" fill="#fff" stroke="#1a445a" stroke-miterlimit="10" stroke-width="2"/>
      <text id="N" transform="translate(30.784 95.276) rotate(-128.09)" fill="#1a445a" font-size="17" font-family="FreeSerif"><tspan x="0" y="0">N</tspan></text>
      <text id="e" transform="translate(22.436 85.923) rotate(-115.86)" fill="#1a445a" font-size="16" font-family="FreeSerif"><tspan x="0" y="0">e</tspan></text>
      <text id="p" transform="matrix(-0.271, -0.963, 0.963, -0.271, 19.013, 79.065)" fill="#1a445a" font-size="16" font-family="FreeSerif"><tspan x="0" y="0">p</tspan></text>
      <text id="a" transform="translate(16.654 70.617) rotate(-95.4)" fill="#1a445a" font-size="16" font-family="FreeSerif"><tspan x="0" y="0">a</tspan></text>
      <text id="l" transform="translate(16.005 62.979) rotate(-87.76)" fill="#1a445a" font-size="16" font-family="FreeSerif"><tspan x="0" y="0">l</tspan></text>
      <text id="S" transform="translate(17.573 53.787) rotate(-72.92)" fill="#1a445a" font-size="17" font-family="FreeSerif"><tspan x="0" y="0">S</tspan></text>
      <text id="t" transform="translate(19.621 44.266) rotate(-64.06)" fill="#1a445a" font-size="16" font-family="FreeSerif"><tspan x="0" y="0">t</tspan></text>
      <text id="a-2" data-name="a" transform="translate(21.622 39.877) rotate(-56.18)" fill="#1a445a" font-size="16" font-family="FreeSerif"><tspan x="0" y="0">a</tspan></text>
      <text id="r" transform="matrix(0.677, -0.736, 0.736, 0.677, 26.145, 33.248)" fill="#1a445a" font-size="16" font-family="FreeSerif"><tspan x="0" y="0">r</tspan></text>
      <text id="t-2" data-name="t" transform="matrix(0.76, -0.65, 0.65, 0.76, 30.224, 28.844)" fill="#1a445a" font-size="16" font-family="FreeSerif"><tspan x="0" y="0">t</tspan></text>
      <text id="U" transform="matrix(0.871, -0.492, 0.492, 0.871, 34.273, 26.144)" fill="#1a445a" font-size="17" font-family="FreeSerif"><tspan x="0" y="0">U</tspan></text>
      <text id="p-2" data-name="p" transform="translate(44.751 19.244) rotate(-16.47)" fill="#1a445a" font-size="16" font-family="FreeSerif"><tspan x="0" y="0">p</tspan></text>
      <text id="C" transform="translate(57.844 16.859) rotate(2.26)" fill="#1a445a" font-size="17" font-family="FreeSerif"><tspan x="0" y="0">C</tspan></text>
      <text id="e-2" data-name="e" transform="translate(69.391 16.458) rotate(13.96)" fill="#1a445a" font-size="16" font-family="FreeSerif"><tspan x="0" y="0">e</tspan></text>
      <text id="n-2" data-name="n" transform="translate(76.756 18.19) rotate(23.92)" fill="#1a445a" font-size="16" font-family="FreeSerif"><tspan x="0" y="0">n</tspan></text>
      <text id="t-3" data-name="t" transform="translate(84.973 21.995) rotate(32.65)" fill="#1a445a" font-size="16" font-family="FreeSerif"><tspan x="0" y="0">t</tspan></text>
      <text id="e-3" data-name="e" transform="translate(89.139 24.519) rotate(40.539)" fill="#1a445a" font-size="16" font-family="FreeSerif"><tspan x="0" y="0">e</tspan></text>
      <text id="r-2" data-name="r" transform="matrix(0.656, 0.755, -0.755, 0.656, 94.997, 29.61)" fill="#1a445a" font-size="16" font-family="FreeSerif"><tspan x="0" y="0">r</tspan></text>
      <text id="P-3" data-name="P" transform="matrix(0.431, 0.902, -0.902, 0.431, 100.731, 38.174)" fill="#1a445a" font-size="17" font-family="FreeSerif"><tspan x="0" y="0">P</tspan></text>
      <text id="v" transform="matrix(0.24, 0.97, -0.97, 0.24, 105.938, 46.828)" fill="#1a445a" font-size="16" font-family="FreeSerif"><tspan x="0" y="0">v</tspan></text>
      <text id="t-4" data-name="t" transform="translate(107.891 55.29) rotate(84.6)" fill="#1a445a" font-size="16" font-family="FreeSerif"><tspan x="0" y="0">t</tspan></text>
      <text id="_." data-name="." transform="translate(107.349 60.278) rotate(90.573)" fill="#1a445a" font-size="17" font-family="FreeSerif"><tspan x="0" y="0">.</tspan></text>
      <text id="L-2" data-name="L" transform="translate(107.154 69.016) rotate(105.67)" fill="#1a445a" font-size="17" font-family="FreeSerif"><tspan x="0" y="0">L</tspan></text>
      <text id="t-5" data-name="t" transform="matrix(-0.431, 0.902, -0.902, -0.431, 104.887, 79.869)" fill="#1a445a" font-size="16" font-family="FreeSerif"><tspan x="0" y="0">t</tspan></text>
      <text id="d" transform="translate(102.937 84.332) rotate(124.007)" fill="#1a445a" font-size="16" font-family="FreeSerif"><tspan x="0" y="0">d</tspan></text>
      <text id="_.-2" data-name="." transform="translate(96.984 91.059) rotate(132.62)" fill="#1a445a" font-size="17" font-family="FreeSerif"><tspan x="0" y="0">.</tspan></text>
      <text id="_" data-name="★" transform="translate(70.804 107.045) rotate(178.854)" fill="#1a445a" font-size="17" font-family="ArtifaktElement-Regular, Artifakt Element"><tspan x="0" y="0">★</tspan></text>
      <circle id="Ellipse_7" data-name="Ellipse 7" cx="37.859" cy="37.859" r="37.859" transform="translate(24.341 24.341)" fill="none" stroke="#1a445a" stroke-miterlimit="10" stroke-width="2"/>
    </g>
  </g>
</svg>
